<mxfile host="app.diagrams.net" modified="2023-09-25T18:28:13.475Z" agent="Mozilla/5.0 (Windows NT 10.0; Win64; x64) AppleWebKit/537.36 (KHTML, like Gecko) Chrome/117.0.0.0 Safari/537.36" version="21.8.2" etag="-iDUPF2lMCV4_6YjYWkW" type="github">
  <diagram name="Page-1" id="XrGWOfgfn5Rz7EAfrz9q">
    <mxGraphModel>
      <root>
        <mxCell id="0" />
        <mxCell id="1" parent="0" />
      </root>
    </mxGraphModel>
  </diagram>
</mxfile>
